<?xml version="1.0" encoding="UTF-8" standalone="no"?>
<!-- Created with Inkscape (http://www.inkscape.org/) -->

<svg
   width="210mm"
   height="297mm"
   viewBox="0 0 210 297"
   version="1.1"
   id="svg1"
   xml:space="preserve"
   inkscape:version="1.3 (0e150ed6c4, 2023-07-21)"
   sodipodi:docname="logo_bg.svg"
   xmlns:inkscape="http://www.inkscape.org/namespaces/inkscape"
   xmlns:sodipodi="http://sodipodi.sourceforge.net/DTD/sodipodi-0.dtd"
   xmlns:xlink="http://www.w3.org/1999/xlink"
   xmlns="http://www.w3.org/2000/svg"
   xmlns:svg="http://www.w3.org/2000/svg"><sodipodi:namedview
     id="namedview1"
     pagecolor="#ffffff"
     bordercolor="#666666"
     borderopacity="1.0"
     inkscape:showpageshadow="2"
     inkscape:pageopacity="0.0"
     inkscape:pagecheckerboard="0"
     inkscape:deskcolor="#d1d1d1"
     inkscape:document-units="mm"
     inkscape:zoom="1.4142136"
     inkscape:cx="412.24325"
     inkscape:cy="556.13948"
     inkscape:window-width="2560"
     inkscape:window-height="1377"
     inkscape:window-x="1072"
     inkscape:window-y="-8"
     inkscape:window-maximized="1"
     inkscape:current-layer="layer1" /><defs
     id="defs1"><linearGradient
       id="linearGradient54"
       inkscape:collect="always"><stop
         style="stop-color:#787878;stop-opacity:1;"
         offset="0.64908725"
         id="stop54" /><stop
         style="stop-color:#5c5c5b;stop-opacity:1;"
         offset="1"
         id="stop55" /></linearGradient><rect
       x="183.4431"
       y="752.78205"
       width="484.27077"
       height="70.810937"
       id="rect52" /><linearGradient
       id="linearGradient23"
       inkscape:collect="always"><stop
         style="stop-color:#a4a4a4;stop-opacity:1;"
         offset="0"
         id="stop22" /><stop
         style="stop-color:#dcdcdc;stop-opacity:1;"
         offset="1"
         id="stop23" /></linearGradient><linearGradient
       id="linearGradient20"
       inkscape:collect="always"><stop
         style="stop-color:#a4a4a4;stop-opacity:1;"
         offset="0"
         id="stop20" /><stop
         style="stop-color:#dcdcdc;stop-opacity:1;"
         offset="1"
         id="stop21" /></linearGradient><linearGradient
       id="linearGradient13"
       inkscape:collect="always"><stop
         style="stop-color:#a4a4a4;stop-opacity:0.99607843;"
         offset="0"
         id="stop13" /><stop
         style="stop-color:#dcdcdc;stop-opacity:1;"
         offset="1"
         id="stop14" /></linearGradient><linearGradient
       inkscape:collect="always"
       xlink:href="#linearGradient13"
       id="linearGradient14"
       x1="103.73022"
       y1="152.11084"
       x2="115.30753"
       y2="110.77559"
       gradientUnits="userSpaceOnUse" /><linearGradient
       inkscape:collect="always"
       xlink:href="#linearGradient23"
       id="linearGradient21"
       x1="76.599564"
       y1="158.04831"
       x2="82.014496"
       y2="135.72931"
       gradientUnits="userSpaceOnUse" /><linearGradient
       inkscape:collect="always"
       xlink:href="#linearGradient20"
       id="linearGradient22"
       x1="62.188053"
       y1="161.57231"
       x2="69.956818"
       y2="146.08714"
       gradientUnits="userSpaceOnUse" /><linearGradient
       inkscape:collect="always"
       xlink:href="#linearGradient23"
       id="linearGradient25"
       x1="114.26507"
       y1="211.22078"
       x2="114.72282"
       y2="159.24141"
       gradientUnits="userSpaceOnUse" /><linearGradient
       inkscape:collect="always"
       xlink:href="#linearGradient23"
       id="linearGradient29"
       x1="144.69269"
       y1="129.04193"
       x2="163.22008"
       y2="92.199852"
       gradientUnits="userSpaceOnUse" /><linearGradient
       inkscape:collect="always"
       xlink:href="#linearGradient13"
       id="linearGradient2"
       x1="75.805153"
       y1="148.38568"
       x2="113.23688"
       y2="76.921341"
       gradientUnits="userSpaceOnUse" /><filter
       style="color-interpolation-filters:sRGB;"
       inkscape:label="Drop Shadow"
       id="filter50"
       x="-0.036263497"
       y="-0.037602958"
       width="1.072527"
       height="1.0752059"><feFlood
         result="flood"
         in="SourceGraphic"
         flood-opacity="0.498039"
         flood-color="rgb(0,0,0)"
         id="feFlood49" /><feGaussianBlur
         result="blur"
         in="SourceGraphic"
         stdDeviation="0.62229344"
         id="feGaussianBlur49" /><feOffset
         result="offset"
         in="blur"
         dx="0.000000"
         dy="0.000000"
         id="feOffset49" /><feComposite
         result="comp1"
         operator="in"
         in="flood"
         in2="offset"
         id="feComposite49" /><feComposite
         result="comp2"
         operator="over"
         in="SourceGraphic"
         in2="comp1"
         id="feComposite50" /></filter><radialGradient
       inkscape:collect="always"
       xlink:href="#linearGradient54"
       id="radialGradient55"
       cx="112.5629"
       cy="129.01428"
       fx="112.5629"
       fy="129.01428"
       r="78.242767"
       gradientUnits="userSpaceOnUse"
       gradientTransform="translate(1.7387989,3.7038043)" /></defs><g
     inkscape:label="Layer 1"
     inkscape:groupmode="layer"
     id="layer1"><circle
       style="fill:url(#radialGradient55);fill-opacity:1;stroke:none;stroke-width:0.264999;stroke-dasharray:none;stroke-dashoffset:42.1572;paint-order:stroke markers fill"
       id="path52"
       cx="113.05692"
       cy="132.44872"
       r="78.242767" /><image
       width="207.96249"
       height="223.30833"
       preserveAspectRatio="none"
       xlink:href="..%5C..%5C.%5C..%5Cimages%5Cimage1.png"
       id="image1"
       x="5.1270061"
       y="2.518568"
       style="display:none" /><g
       id="g52"
       transform="translate(-0.07822521,6.6733222)"><path
         id="path2"
         style="display:inline;fill:url(#linearGradient14);fill-opacity:1;stroke:none;stroke-width:0.264583px;stroke-linecap:butt;stroke-linejoin:miter;stroke-opacity:1"
         d="m 134.66827,102.35293 c -7.95765,4.29535 -41.46259,22.19347 -41.46259,22.19347 0,0 -1.540705,13.95696 11.56777,18.10639 l 0.51263,-0.26045 a 7.9839811,7.9839811 0 0 1 -0.30489,-2.16472 7.9839811,7.9839811 0 0 1 7.98401,-7.98401 7.9839811,7.9839811 0 0 1 6.28489,3.06389 l 25.91779,-13.1501 c 0,0 -8.36202,-6.41308 -10.49961,-19.80447 z" /><path
         id="path5"
         style="display:inline;fill:url(#linearGradient25);fill-opacity:1;stroke:none;stroke-width:0.264583px;stroke-linecap:butt;stroke-linejoin:miter;stroke-opacity:1"
         d="m 105.7212,143.5778 c -0.006,0.005 -0.0672,0.0496 -0.0672,0.0496 l -23.276619,46.46693 h 7.468278 l 19.649961,-37.87676 v 37.78788 h 6.80165 v -37.78788 l 19.9161,37.87676 h 7.29103 l -23.11745,-46.23439 c 0,0 -0.13958,-0.14166 -0.21136,-0.22014 a 7.9839811,7.9839811 0 0 1 -7.21041,4.57182 7.9839811,7.9839811 0 0 1 -7.244,-4.63383 z" /><g
         id="g5"
         style="display:inline"><circle
           style="fill:#dcdcdc;fill-opacity:1;fill-rule:evenodd;stroke-width:0.264583"
           id="path4"
           cx="112.96542"
           cy="140.2276"
           r="3.5050273" /><path
           id="path12"
           style="fill:url(#linearGradient29);fill-opacity:1;stroke:none;stroke-width:0.264583px;stroke-linecap:butt;stroke-linejoin:miter;stroke-opacity:1"
           d="m 154.91561,90.047217 -15.59026,9.001001 c -0.54171,8.786232 4.5023,18.927392 12.98112,21.961452 l 14.226,-7.73545 c 1.15869,-9.36206 -2.49242,-18.712224 -11.61686,-23.227003 z m 0.21342,4.556828 a 8.5958252,2.1174415 64.327945 0 1 4.86637,5.743835 8.5958252,2.1174415 64.327945 0 1 2.63033,9.58133 8.5958252,2.1174415 64.327945 0 1 -5.30097,-5.47047 8.5958252,2.1174415 64.327945 0 1 -2.63033,-9.581327 8.5958252,2.1174415 64.327945 0 1 0.4346,-0.273368 z" /></g><path
         style="fill:url(#linearGradient21);fill-opacity:1;stroke:none;stroke-width:0.264583px;stroke-linecap:butt;stroke-linejoin:miter;stroke-opacity:1"
         d="m 88.289854,128.52264 -13.381291,6.84625 c -0.161477,5.87825 2.692183,10.86678 7.640335,15.23727 l 13.674323,-7.2301 c -3.844847,-3.61356 -7.003028,-7.99226 -7.933367,-14.85342 z"
         id="path14"
         sodipodi:nodetypes="ccccc" /><path
         style="fill:url(#linearGradient22);fill-opacity:1;stroke:none;stroke-width:0.264583px;stroke-linecap:butt;stroke-linejoin:miter;stroke-opacity:1"
         d="m 70.587797,141.17559 -5.265401,3.33214 c -1.749045,-2.20981 -3.701717,-4.58756 -5.532599,-3.48932 -1.964899,1.17863 -0.606692,6.60246 1.05308,9.9021 2.018306,4.01241 5.000238,8.0431 7.283301,6.71379 1.60174,-0.93261 1.100431,-3.07576 0.918594,-5.50242 l 5.722792,-3.06065 c -1.688981,-2.1564 -2.963869,-4.5861 -4.179767,-7.89564 z"
         id="path15"
         sodipodi:nodetypes="ccsssccc" /><path
         style="fill:url(#linearGradient2);stroke:none;stroke-width:0.265;stroke-linecap:butt;stroke-linejoin:miter;stroke-dasharray:none;stroke-opacity:1"
         d="m 111.87541,104.93486 c 1.8205,-16.725413 4.10227,-18.0573 20.53333,-20.386947 -16.77912,-0.856985 -18.71715,-2.837219 -20.73497,-19.330784 -1.59801,16.443522 -3.93956,17.884175 -20.449811,19.249498 16.720521,1.978374 18.823321,3.700279 20.651451,20.468233 z"
         id="path16"
         sodipodi:nodetypes="ccccc" /><circle
         style="fill:#dcdcdc;fill-opacity:1;fill-rule:evenodd;stroke-width:0.264583"
         id="path17"
         cx="123.41469"
         cy="64.567947"
         r="1.3831499" /><circle
         style="fill:#dcdcdc;fill-opacity:1;fill-rule:evenodd;stroke-width:0.264583"
         id="path18"
         cx="112.28662"
         cy="56.489098"
         r="0.72301018" /><circle
         style="fill:#dcdcdc;fill-opacity:1;fill-rule:evenodd;stroke-width:0.264583"
         id="path19"
         cx="97.716393"
         cy="66.626953"
         r="0.55011642" /><circle
         style="fill:#dcdcdc;fill-opacity:1;fill-rule:evenodd;stroke-width:0.264583"
         id="path20"
         cx="128.96301"
         cy="74.517197"
         r="0.80159825" /></g><text
       xml:space="preserve"
       transform="scale(0.26458333)"
       id="text52"
       style="font-size:40px;line-height:25px;font-family:'Berlin Sans FB';-inkscape-font-specification:'Berlin Sans FB';letter-spacing:0px;word-spacing:0px;white-space:pre;shape-inside:url(#rect52);display:inline" /></g></svg>
