<svg width="289" height="367" viewBox="0 0 289 367" fill="none" xmlns="http://www.w3.org/2000/svg">
<g clip-path="url(#clip0_144_474)">
<path d="M190.61 105.509C172.083 115.524 94.0771 157.254 94.0771 157.254C94.0771 157.254 90.4901 189.795 121.009 199.47L122.203 198.862C121.736 197.22 121.497 195.522 121.493 193.815C121.493 191.371 121.973 188.95 122.908 186.692C123.842 184.433 125.211 182.381 126.937 180.652C128.663 178.924 130.712 177.553 132.967 176.617C135.223 175.682 137.64 175.2 140.081 175.2C142.901 175.201 145.684 175.845 148.219 177.083C150.755 178.32 152.975 180.119 154.713 182.344L215.055 151.684C215.055 151.684 195.586 136.731 190.61 105.509Z" fill="url(#paint0_linear_144_474)"/>
<path d="M123.216 201.626C123.202 201.638 123.059 201.742 123.059 201.742L68.8669 310.082H86.2544L132.003 221.77V309.874H147.839V221.77L194.207 310.082H211.182L157.36 202.284C157.36 202.284 157.035 201.954 156.868 201.771C155.364 204.957 152.988 207.649 150.017 209.536C147.045 211.423 143.6 212.427 140.081 212.43C136.533 212.429 133.06 211.411 130.072 209.496C127.083 207.582 124.704 204.851 123.216 201.626Z" fill="url(#paint1_linear_144_474)"/>
<path d="M140.081 201.987C144.588 201.987 148.242 198.328 148.242 193.815C148.242 189.302 144.588 185.643 140.081 185.643C135.575 185.643 131.921 189.302 131.921 193.815C131.921 198.328 135.575 201.987 140.081 201.987Z" fill="#DCDCDC"/>
<path d="M237.749 76.8175L201.452 97.8037C200.191 118.289 211.934 141.934 231.675 149.008L264.795 130.972C267.493 109.144 258.993 87.3439 237.749 76.8175ZM238.246 87.4419C239.415 87.3404 241.166 88.6044 243.22 91.0319C245.274 93.4595 247.512 96.9106 249.576 100.834C252.024 105.488 254.045 110.455 255.194 114.645C256.342 118.834 256.524 121.902 255.7 123.173C254.875 124.444 253.111 123.814 250.797 121.422C248.483 119.03 245.807 115.072 243.358 110.419C240.909 105.765 238.889 100.797 237.74 96.6076C236.592 92.4182 236.41 89.3505 237.234 88.0793C237.485 87.6928 237.825 87.4787 238.246 87.4419Z" fill="url(#paint2_linear_144_474)"/>
<path d="M82.6322 166.525L51.4781 182.487C51.1021 196.192 57.746 207.823 69.2662 218.013L101.103 201.156C92.151 192.731 84.7982 182.522 82.6322 166.525Z" fill="url(#paint3_linear_144_474)"/>
<path d="M41.4185 196.025L29.1597 203.794C25.0876 198.642 20.5414 193.098 16.2788 195.659C11.7042 198.407 14.8663 211.053 18.7306 218.746C23.4296 228.101 30.372 237.499 35.6874 234.4C39.4166 232.225 38.2494 227.228 37.8261 221.57L51.1498 214.434C47.2175 209.407 44.2494 203.742 41.4185 196.025Z" fill="url(#paint4_linear_144_474)"/>
<path d="M137.544 111.529C141.782 72.5327 147.095 69.4273 185.349 63.9957C146.284 61.9976 141.772 57.3806 137.074 18.9251C133.354 57.2639 127.902 60.6228 89.4633 63.8061C128.392 68.4188 133.287 72.4335 137.544 111.529Z" fill="#7D7AFF"/>
<path d="M164.409 20.6364C166.188 20.6364 167.629 19.1926 167.629 17.4115C167.629 15.6305 166.188 14.1866 164.409 14.1866C162.631 14.1866 161.189 15.6305 161.189 17.4115C161.189 19.1926 162.631 20.6364 164.409 20.6364Z" fill="#7D7AFF"/>
<path d="M138.501 0.261078C139.431 0.261078 140.184 -0.49365 140.184 -1.42465C140.184 -2.35565 139.431 -3.11038 138.501 -3.11038C137.571 -3.11038 136.818 -2.35565 136.818 -1.42465C136.818 -0.49365 137.571 0.261078 138.501 0.261078Z" fill="#7D7AFF"/>
<path d="M104.579 23.4948C105.286 23.4948 105.86 22.9206 105.86 22.2122C105.86 21.5038 105.286 20.9296 104.579 20.9296C103.872 20.9296 103.298 21.5038 103.298 22.2122C103.298 22.9206 103.872 23.4948 104.579 23.4948Z" fill="#7D7AFF"/>
<path d="M177.327 42.4776C178.357 42.4776 179.193 41.6408 179.193 40.6086C179.193 39.5764 178.357 38.7397 177.327 38.7397C176.296 38.7397 175.46 39.5764 175.46 40.6086C175.46 41.6408 176.296 42.4776 177.327 42.4776Z" fill="#7D7AFF"/>
</g>
<path d="M19.4706 345.757C20.4506 346.485 21.5706 347.059 22.8306 347.479C24.0906 347.899 25.4346 348.109 26.8626 348.109C28.5706 348.109 29.9426 347.745 30.9786 347.017C32.0426 346.261 32.5746 345.253 32.5746 343.993C32.5746 343.573 32.5186 343.139 32.4066 342.691C32.2946 342.215 32.0146 341.781 31.5666 341.389C31.1186 340.969 30.4606 340.591 29.5926 340.255C28.7246 339.919 27.5346 339.653 26.0226 339.457C22.4106 339.009 19.7926 338.029 18.1686 336.517C16.5726 334.977 15.7746 332.807 15.7746 330.007C15.7746 328.635 16.0686 327.389 16.6566 326.269C17.2446 325.149 18.0426 324.197 19.0506 323.413C20.0586 322.601 21.2346 321.985 22.5786 321.565C23.9226 321.117 25.3506 320.893 26.8626 320.893C28.5426 320.893 30.2506 321.145 31.9866 321.649C33.7226 322.125 35.2626 322.811 36.6066 323.707C37.1666 324.099 37.5166 324.645 37.6566 325.345C37.7966 326.017 37.6706 326.703 37.2786 327.403C36.8866 328.075 36.3406 328.551 35.6406 328.831C34.9686 329.111 34.3386 329.069 33.7506 328.705C32.6306 328.005 31.5386 327.487 30.4746 327.151C29.4386 326.787 28.2346 326.605 26.8626 326.605C25.4066 326.605 24.2306 326.913 23.3346 327.529C22.4666 328.117 22.0186 328.943 21.9906 330.007C21.9906 330.567 22.0606 331.057 22.2006 331.477C22.3406 331.897 22.6346 332.275 23.0826 332.611C23.5586 332.919 24.2306 333.199 25.0986 333.451C25.9666 333.703 27.1286 333.927 28.5846 334.123C30.1246 334.319 31.5246 334.683 32.7846 335.215C34.0446 335.747 35.1226 336.433 36.0186 337.273C36.9146 338.113 37.6006 339.107 38.0766 340.255C38.5526 341.375 38.7906 342.621 38.7906 343.993C38.7906 345.505 38.4686 346.863 37.8246 348.067C37.2086 349.271 36.3546 350.307 35.2626 351.175C34.1986 352.015 32.9386 352.659 31.4826 353.107C30.0546 353.583 28.5146 353.821 26.8626 353.821C24.8466 353.821 22.9426 353.541 21.1506 352.981C19.3866 352.421 17.7766 351.637 16.3206 350.629L16.1946 350.503C15.6346 350.083 15.3126 349.509 15.2286 348.781C15.1726 348.053 15.3686 347.339 15.8166 346.639C16.0406 346.359 16.3066 346.121 16.6146 345.925C16.9506 345.701 17.2866 345.547 17.6226 345.463C17.9586 345.379 18.2806 345.365 18.5886 345.421C18.9246 345.449 19.2186 345.561 19.4706 345.757ZM42.9749 324.127C42.9749 323.427 43.2689 322.839 43.8569 322.363C44.4449 321.859 45.1449 321.607 45.9569 321.607H56.8349C58.3749 321.607 59.8169 321.887 61.1609 322.447C62.5049 322.979 63.6809 323.721 64.6889 324.673C65.6969 325.625 66.4809 326.759 67.0409 328.075C67.6289 329.391 67.9229 330.819 67.9229 332.359C67.9229 333.899 67.6289 335.327 67.0409 336.643C66.4809 337.959 65.6969 339.093 64.6889 340.045C63.6809 340.997 62.5049 341.753 61.1609 342.313C59.8169 342.845 58.3749 343.111 56.8349 343.111H48.9389V350.923C48.9389 351.623 48.6449 352.225 48.0569 352.729C47.4689 353.205 46.7689 353.443 45.9569 353.443C45.1449 353.443 44.4449 353.205 43.8569 352.729C43.2689 352.225 42.9749 351.623 42.9749 350.923V324.127ZM61.7069 332.359C61.7069 331.659 61.5669 331.015 61.2869 330.427C61.0349 329.811 60.6849 329.279 60.2369 328.831C59.7889 328.355 59.2569 327.991 58.6409 327.739C58.0249 327.459 57.3809 327.319 56.7089 327.319H48.9389V337.399H56.7089C57.3809 337.399 58.0249 337.273 58.6409 337.021C59.2569 336.741 59.7889 336.377 60.2369 335.929C60.6849 335.453 61.0349 334.921 61.2869 334.333C61.5669 333.717 61.7069 333.059 61.7069 332.359ZM94.2884 349.789C94.5124 350.433 94.4424 351.091 94.0784 351.763C93.7424 352.435 93.1964 352.925 92.4404 353.233C91.6284 353.485 90.8724 353.499 90.1724 353.275C89.4724 353.051 88.9684 352.617 88.6604 351.973L86.6444 347.395H74.0444L72.0284 351.973C71.7204 352.617 71.2164 353.051 70.5164 353.275C69.8164 353.499 69.0604 353.485 68.2484 353.233C67.4924 352.925 66.9324 352.435 66.5684 351.763C66.2324 351.091 66.1764 350.433 66.4004 349.789L76.7324 323.287C77.0404 322.615 77.5304 322.111 78.2024 321.775C78.8744 321.439 79.5884 321.271 80.3444 321.271C81.1004 321.271 81.8144 321.439 82.4864 321.775C83.1584 322.111 83.6484 322.615 83.9564 323.287L94.2884 349.789ZM80.5124 330.091H80.1764L76.0604 341.683H84.6284L80.5124 330.091ZM120.069 344.287C120.545 343.755 121.147 343.475 121.875 343.447C122.603 343.419 123.289 343.671 123.933 344.203C124.549 344.707 124.913 345.351 125.025 346.135C125.137 346.891 124.969 347.521 124.521 348.025C122.869 349.873 120.979 351.301 118.851 352.309C116.751 353.317 114.483 353.821 112.047 353.821C109.723 353.821 107.525 353.401 105.453 352.561C103.409 351.721 101.617 350.573 100.077 349.117C98.5652 347.633 97.3612 345.883 96.4652 343.867C95.5972 341.851 95.1632 339.681 95.1632 337.357C95.1632 335.033 95.5972 332.863 96.4652 330.847C97.3612 328.831 98.5652 327.095 100.077 325.639C101.617 324.155 103.409 322.993 105.453 322.153C107.525 321.313 109.723 320.893 112.047 320.893C114.483 320.893 116.751 321.397 118.851 322.405C120.979 323.413 122.869 324.841 124.521 326.689C124.969 327.193 125.137 327.837 125.025 328.621C124.913 329.377 124.549 330.007 123.933 330.511C123.289 331.043 122.603 331.295 121.875 331.267C121.147 331.239 120.545 330.959 120.069 330.427C119.509 329.895 118.935 329.405 118.347 328.957C117.787 328.481 117.185 328.075 116.541 327.739C115.925 327.375 115.239 327.095 114.483 326.899C113.755 326.703 112.943 326.605 112.047 326.605C110.563 326.605 109.177 326.885 107.889 327.445C106.601 328.005 105.467 328.775 104.487 329.755C103.535 330.735 102.779 331.883 102.219 333.199C101.659 334.487 101.379 335.873 101.379 337.357C101.379 338.841 101.659 340.241 102.219 341.557C102.779 342.845 103.535 343.979 104.487 344.959C105.467 345.939 106.601 346.709 107.889 347.269C109.177 347.829 110.563 348.109 112.047 348.109C112.943 348.109 113.755 348.011 114.483 347.815C115.239 347.619 115.925 347.353 116.541 347.017C117.185 346.653 117.787 346.247 118.347 345.799C118.935 345.323 119.509 344.819 120.069 344.287ZM129.067 324.127C129.067 323.427 129.361 322.839 129.949 322.363C130.537 321.859 131.237 321.607 132.049 321.607H150.025C150.725 321.607 151.313 321.887 151.789 322.447C152.293 322.979 152.545 323.651 152.545 324.463C152.545 325.275 152.293 325.961 151.789 326.521C151.313 327.053 150.725 327.319 150.025 327.319H135.031V334.459H147.127C147.827 334.459 148.415 334.739 148.891 335.299C149.395 335.831 149.647 336.503 149.647 337.315C149.647 338.127 149.395 338.813 148.891 339.373C148.415 339.905 147.827 340.171 147.127 340.171H135.031V347.395H150.025C150.725 347.395 151.313 347.675 151.789 348.235C152.293 348.767 152.545 349.439 152.545 350.251C152.545 351.063 152.293 351.749 151.789 352.309C151.313 352.841 150.725 353.107 150.025 353.107H132.049C131.237 353.107 130.537 352.869 129.949 352.393C129.361 351.889 129.067 351.287 129.067 350.587V324.127ZM172.258 351.385C171.95 352.057 171.46 352.561 170.788 352.897C170.116 353.233 169.402 353.401 168.646 353.401C167.89 353.401 167.176 353.233 166.504 352.897C165.832 352.561 165.342 352.057 165.034 351.385L154.702 324.883C154.478 324.239 154.534 323.581 154.87 322.909C155.234 322.237 155.794 321.747 156.55 321.439C157.362 321.187 158.118 321.173 158.818 321.397C159.518 321.621 160.022 322.055 160.33 322.699L168.478 344.581H168.814L176.962 322.699C177.27 322.055 177.774 321.621 178.474 321.397C179.174 321.173 179.93 321.187 180.742 321.439C181.498 321.747 182.044 322.237 182.38 322.909C182.744 323.581 182.814 324.239 182.59 324.883L172.258 351.385ZM185.914 323.791C185.914 323.091 186.208 322.503 186.796 322.027C187.384 321.523 188.084 321.271 188.896 321.271C189.708 321.271 190.408 321.523 190.996 322.027C191.584 322.503 191.878 323.091 191.878 323.791V350.923C191.878 351.651 191.584 352.253 190.996 352.729C190.408 353.205 189.708 353.443 188.896 353.443C188.084 353.443 187.384 353.205 186.796 352.729C186.208 352.253 185.914 351.651 185.914 350.923V323.791ZM196.907 324.127C196.907 323.427 197.201 322.839 197.789 322.363C198.377 321.859 199.077 321.607 199.889 321.607H217.865C218.565 321.607 219.153 321.887 219.629 322.447C220.133 322.979 220.385 323.651 220.385 324.463C220.385 325.275 220.133 325.961 219.629 326.521C219.153 327.053 218.565 327.319 217.865 327.319H202.871V334.459H214.967C215.667 334.459 216.255 334.739 216.731 335.299C217.235 335.831 217.487 336.503 217.487 337.315C217.487 338.127 217.235 338.813 216.731 339.373C216.255 339.905 215.667 340.171 214.967 340.171H202.871V347.395H217.865C218.565 347.395 219.153 347.675 219.629 348.235C220.133 348.767 220.385 349.439 220.385 350.251C220.385 351.063 220.133 351.749 219.629 352.309C219.153 352.841 218.565 353.107 217.865 353.107H199.889C199.077 353.107 198.377 352.869 197.789 352.393C197.201 351.889 196.907 351.287 196.907 350.587V324.127ZM250.598 342.439H250.766L256.016 322.951C256.184 322.307 256.604 321.831 257.276 321.523C257.976 321.215 258.718 321.173 259.502 321.397C260.286 321.621 260.888 322.055 261.308 322.699C261.728 323.315 261.84 324.001 261.644 324.757L254.042 351.427C253.79 352.099 253.342 352.603 252.698 352.939C252.054 353.275 251.382 353.443 250.682 353.443C249.982 353.443 249.31 353.275 248.666 352.939C248.05 352.603 247.616 352.113 247.364 351.469L242.114 332.317H241.946L236.696 351.469C236.444 352.113 235.996 352.603 235.352 352.939C234.736 353.275 234.078 353.443 233.378 353.443C232.678 353.443 232.006 353.275 231.362 352.939C230.746 352.603 230.298 352.099 230.018 351.427L222.416 324.757C222.22 324.001 222.332 323.315 222.752 322.699C223.172 322.055 223.774 321.621 224.558 321.397C225.342 321.173 226.07 321.215 226.742 321.523C227.442 321.831 227.876 322.307 228.044 322.951L233.294 342.439H233.462L238.586 323.581C238.782 322.825 239.216 322.251 239.888 321.859C240.56 321.467 241.274 321.271 242.03 321.271C242.786 321.271 243.5 321.467 244.172 321.859C244.844 322.251 245.278 322.825 245.474 323.581L250.598 342.439Z" fill="#BFBFBF"/>
<defs>
<linearGradient id="paint0_linear_144_474" x1="118.58" y1="221.521" x2="145.606" y2="125.167" gradientUnits="userSpaceOnUse">
<stop stop-color="#A4A4A4" stop-opacity="0.996078"/>
<stop offset="1" stop-color="#DCDCDC"/>
</linearGradient>
<linearGradient id="paint1_linear_144_474" x1="143.107" y1="359.339" x2="144.176" y2="238.147" gradientUnits="userSpaceOnUse">
<stop stop-color="#A4A4A4"/>
<stop offset="1" stop-color="#DCDCDC"/>
</linearGradient>
<linearGradient id="paint2_linear_144_474" x1="213.948" y1="167.735" x2="257.183" y2="81.8865" gradientUnits="userSpaceOnUse">
<stop stop-color="#A4A4A4"/>
<stop offset="1" stop-color="#DCDCDC"/>
</linearGradient>
<linearGradient id="paint3_linear_144_474" x1="55.415" y1="235.365" x2="68.0563" y2="183.336" gradientUnits="userSpaceOnUse">
<stop stop-color="#A4A4A4"/>
<stop offset="1" stop-color="#DCDCDC"/>
</linearGradient>
<linearGradient id="paint4_linear_144_474" x1="21.8624" y1="243.581" x2="39.9912" y2="207.498" gradientUnits="userSpaceOnUse">
<stop stop-color="#A4A4A4"/>
<stop offset="1" stop-color="#DCDCDC"/>
</linearGradient>
<clipPath id="clip0_144_474">
<rect width="280.042" height="320.81" fill="white"/>
</clipPath>
</defs>
</svg>
