<svg width="281" height="321" viewBox="0 0 281 321" fill="none" xmlns="http://www.w3.org/2000/svg">
<g clip-path="url(#clip0_215_201)">
<path d="M190.61 105.509C172.083 115.524 94.0771 157.254 94.0771 157.254C94.0771 157.254 90.49 189.795 121.009 199.47L122.202 198.862C121.736 197.22 121.497 195.522 121.493 193.815C121.493 191.371 121.973 188.95 122.908 186.692C123.842 184.433 125.211 182.381 126.937 180.652C128.663 178.924 130.712 177.553 132.967 176.617C135.223 175.682 137.64 175.2 140.081 175.2C142.901 175.201 145.684 175.845 148.219 177.083C150.755 178.32 152.975 180.119 154.713 182.344L215.055 151.684C215.055 151.684 195.586 136.731 190.61 105.509Z" fill="url(#paint0_linear_215_201)"/>
<path d="M123.216 201.626C123.202 201.638 123.059 201.742 123.059 201.742L68.8669 310.082H86.2544L132.003 221.77V309.874H147.839V221.77L194.207 310.082H211.182L157.36 202.284C157.36 202.284 157.035 201.954 156.868 201.771C155.364 204.957 152.988 207.649 150.017 209.536C147.045 211.423 143.6 212.427 140.081 212.43C136.533 212.429 133.06 211.411 130.072 209.496C127.083 207.582 124.704 204.851 123.216 201.626Z" fill="url(#paint1_linear_215_201)"/>
<path d="M140.081 201.987C144.588 201.987 148.242 198.328 148.242 193.815C148.242 189.302 144.588 185.643 140.081 185.643C135.575 185.643 131.921 189.302 131.921 193.815C131.921 198.328 135.575 201.987 140.081 201.987Z" fill="#414141"/>
<path d="M237.749 76.8175L201.452 97.8037C200.191 118.289 211.934 141.934 231.675 149.008L264.795 130.972C267.493 109.144 258.993 87.3439 237.749 76.8175ZM238.246 87.4419C239.415 87.3404 241.166 88.6044 243.22 91.0319C245.274 93.4595 247.512 96.9106 249.576 100.834C252.025 105.488 254.045 110.455 255.194 114.645C256.342 118.834 256.524 121.902 255.7 123.173C254.875 124.444 253.112 123.814 250.797 121.422C248.483 119.03 245.807 115.072 243.358 110.419C240.909 105.765 238.889 100.797 237.74 96.6076C236.592 92.4182 236.41 89.3505 237.234 88.0793C237.485 87.6928 237.825 87.4787 238.246 87.4419Z" fill="url(#paint2_linear_215_201)"/>
<path d="M82.6321 166.525L51.478 182.487C51.1021 196.192 57.7459 207.823 69.2661 218.013L101.102 201.156C92.151 192.731 84.7981 182.522 82.6321 166.525Z" fill="url(#paint3_linear_215_201)"/>
<path d="M41.4185 196.025L29.1597 203.794C25.0876 198.642 20.5414 193.098 16.2788 195.659C11.7042 198.407 14.8663 211.053 18.7306 218.746C23.4296 228.101 30.372 237.499 35.6874 234.4C39.4166 232.225 38.2494 227.228 37.8261 221.57L51.1498 214.434C47.2175 209.407 44.2494 203.742 41.4185 196.025Z" fill="url(#paint4_linear_215_201)"/>
<path d="M137.544 111.529C141.782 72.5327 147.095 69.4273 185.349 63.9957C146.284 61.9976 141.772 57.3806 137.074 18.9251C133.354 57.2639 127.902 60.6228 89.4633 63.8061C128.392 68.4188 133.287 72.4335 137.544 111.529Z" fill="#7D7AFF"/>
<path d="M164.409 20.6364C166.188 20.6364 167.629 19.1926 167.629 17.4115C167.629 15.6305 166.188 14.1866 164.409 14.1866C162.631 14.1866 161.189 15.6305 161.189 17.4115C161.189 19.1926 162.631 20.6364 164.409 20.6364Z" fill="#7D7AFF"/>
<path d="M138.501 0.261078C139.431 0.261078 140.184 -0.49365 140.184 -1.42465C140.184 -2.35565 139.431 -3.11038 138.501 -3.11038C137.571 -3.11038 136.818 -2.35565 136.818 -1.42465C136.818 -0.49365 137.571 0.261078 138.501 0.261078Z" fill="#7D7AFF"/>
<path d="M104.579 23.4948C105.286 23.4948 105.86 22.9206 105.86 22.2122C105.86 21.5038 105.286 20.9296 104.579 20.9296C103.872 20.9296 103.298 21.5038 103.298 22.2122C103.298 22.9206 103.872 23.4948 104.579 23.4948Z" fill="#7D7AFF"/>
<path d="M177.327 42.4776C178.357 42.4776 179.193 41.6408 179.193 40.6086C179.193 39.5764 178.357 38.7397 177.327 38.7397C176.296 38.7397 175.46 39.5764 175.46 40.6086C175.46 41.6408 176.296 42.4776 177.327 42.4776Z" fill="#7D7AFF"/>
</g>
<defs>
<linearGradient id="paint0_linear_215_201" x1="118.58" y1="221.521" x2="145.606" y2="125.167" gradientUnits="userSpaceOnUse">
<stop stop-color="#414141" stop-opacity="0.996078"/>
<stop offset="1" stop-color="#707070"/>
</linearGradient>
<linearGradient id="paint1_linear_215_201" x1="143.107" y1="359.339" x2="144.176" y2="238.147" gradientUnits="userSpaceOnUse">
<stop stop-color="#414141"/>
<stop offset="1" stop-color="#707070"/>
</linearGradient>
<linearGradient id="paint2_linear_215_201" x1="213.948" y1="167.735" x2="257.183" y2="81.8865" gradientUnits="userSpaceOnUse">
<stop stop-color="#414141"/>
<stop offset="1" stop-color="#707070"/>
</linearGradient>
<linearGradient id="paint3_linear_215_201" x1="55.415" y1="235.365" x2="68.0563" y2="183.336" gradientUnits="userSpaceOnUse">
<stop stop-color="#414141"/>
<stop offset="1" stop-color="#707070"/>
</linearGradient>
<linearGradient id="paint4_linear_215_201" x1="21.8624" y1="243.581" x2="39.9912" y2="207.498" gradientUnits="userSpaceOnUse">
<stop stop-color="#414141"/>
<stop offset="1" stop-color="#707070"/>
</linearGradient>
<clipPath id="clip0_215_201">
<rect width="280.042" height="320.81" fill="white"/>
</clipPath>
</defs>
</svg>
